<?xml version="1.0" encoding="iso-8859-1"?>
<!-- Generator: Adobe Illustrator 19.0.0, SVG Export Plug-In . SVG Version: 6.00 Build 0)  -->
<svg version="1.1" id="Layer_1" xmlns="http://www.w3.org/2000/svg" xmlns:xlink="http://www.w3.org/1999/xlink" x="0px" y="0px"
	 viewBox="0 0 456.963 456.963" style="enable-background:new 0 0 456.963 456.963;" xml:space="preserve">
<g>
	<g fill="#fff">
		<path d="M360.731,259.463c0-24.322-6.65-48.097-19.228-68.772l61.313-175.938L358.561,0l-52.493,152.231
			c-22.525-16.349-49.84-25.268-77.836-25.268c-27.879,0-54.981,8.809-77.434,24.983L98.402,0L54.147,14.752l61.145,175.412
			c-12.807,20.822-19.561,44.653-19.561,69.299c0,43.176,20.738,83.116,55.746,108.002c-5.806,10.542-9.385,22.258-10.427,34.498
			h-30.319v55h235v-55H315.41c-1.045-12.219-4.631-23.934-10.441-34.486C339.987,342.591,360.731,302.646,360.731,259.463z
			 M367.902,18.926l15.745,5.248l-108.56,311.447c-1.422-0.909-2.866-1.792-4.355-2.618V300.72L367.902,18.926z M259.975,344.319
			c5.136,2.477,9.845,5.523,13.997,9.057l0.121,0.1c14.97,12.21,24.295,29.578,26.253,48.488h-144.23
			c1.969-19.102,11.423-36.568,26.608-48.75l0.158-0.13c3.93-3.333,8.397-6.208,13.655-8.789l4.195-2.06v-35.272h55v35.31
			L259.975,344.319z M228.231,141.963c26.373,0,52.046,8.944,72.685,25.208l-43.032,124.792h-58.805l-43.147-125.127
			C176.514,150.76,201.985,141.963,228.231,141.963z M73.316,24.174l15.745-5.248l96.67,280.344v33.75
			c-1.359,0.755-2.663,1.541-3.941,2.345L73.316,24.174z M110.731,259.463c0-17.527,3.85-34.587,11.226-50.177l47.305,135.709
			c-3.428,3.109-6.575,6.456-9.428,10.006C128.99,332.913,110.731,297.612,110.731,259.463z M330.731,416.963v25h-205v-25H330.731z
			 M296.619,355.007c-2.739-3.414-5.746-6.644-9.015-9.654l47.191-135.416c7.176,15.432,10.936,32.321,10.936,49.526
			C345.731,297.615,327.469,332.919,296.619,355.007z"/>
	</g>
</g>
</svg>
