<?xml version="1.0" encoding="iso-8859-1"?>
<!-- Generator: Adobe Illustrator 19.0.0, SVG Export Plug-In . SVG Version: 6.00 Build 0)  -->
<svg xmlns="http://www.w3.org/2000/svg" xmlns:xlink="http://www.w3.org/1999/xlink" version="1.1" id="Capa_1" x="0px" y="0px" viewBox="0 0 60 60" style="enable-background:new 0 0 60 60;" xml:space="preserve" width="64px" height="64px">
<g>
	<g>
		<rect x="18" y="44" width="2" height="6" fill="#00a7dd"/>
		<rect x="22" y="44" width="2" height="6" fill="#00a7dd"/>
		<rect x="26" y="44" width="2" height="2" fill="#00a7dd"/>
		<rect x="26" y="48" width="2" height="2" fill="#00a7dd"/>
		<rect x="30" y="44" width="2" height="2" fill="#00a7dd"/>
		<rect x="30" y="48" width="2" height="2" fill="#00a7dd"/>
		<rect x="34" y="44" width="2" height="2" fill="#00a7dd"/>
		<rect x="34" y="48" width="2" height="2" fill="#00a7dd"/>
		<path d="M39,50h16c0.6,0,1-0.4,1-1v-4c0-0.6-0.4-1-1-1H39c-0.6,0-1,0.4-1,1v4C38,49.6,38.4,50,39,50z M40,46h14v2H40V46z" fill="#00a7dd"/>
		<path d="M59,0H0v2h58v38h-2V6c0-0.6-0.4-1-1-1H0v2h54v33H15H0v2h14v3H0v2h4v7H0v2h9v2H0v2h10c0.6,0,1-0.4,1-1v-4c0-0.6-0.4-1-1-1    H6v-7h8v6v6c0,0.6,0.4,1,1,1h4c0.6,0,1-0.4,1-1v-5h34v5c0,0.6,0.4,1,1,1h4c0.6,0,1-0.4,1-1v-6V41V1C60,0.4,59.6,0,59,0z M16,42h42    v10h-3H19h-3V42z M18,58h-2v-4h2V58z M58,58h-2v-4h2V58z" fill="#00a7dd"/>
		<rect x="18.984" y="12.697" transform="matrix(0.7071 0.7071 -0.7071 0.7071 22.8216 -7.1019)" width="2" height="22.6" fill="#00a7dd"/>
		<rect x="28.984" y="12.597" transform="matrix(0.7071 0.7071 -0.7071 0.7071 18.6795 -17.1019)" width="2" height="2.8" fill="#00a7dd"/>
		<rect x="20.193" y="23.312" transform="matrix(0.7071 -0.7071 0.7071 0.7071 -8.48 28.1523)" width="19.1" height="2" fill="#00a7dd"/>
	</g>
</g>
<g>
</g>
<g>
</g>
<g>
</g>
<g>
</g>
<g>
</g>
<g>
</g>
<g>
</g>
<g>
</g>
<g>
</g>
<g>
</g>
<g>
</g>
<g>
</g>
<g>
</g>
<g>
</g>
<g>
</g>
</svg>
